# xmcd
# 
# Track frame offsets:
#	150
#	4612
#	23516
#	40168
#	52630
#	70386
#	85529
#	107197
#	124885
#	141479
#	173175
#	192128
#
# Disc length: 2622 seconds
#
# Revision: 2
# Processed by: cddbd v1.5.1PL0 Copyright (c) Steve Scherf et al.
# Submitted via: Audio-CD-Archiv 3.00.487
#
DISCID=940a3c0c
DTITLE=Joy Division - Dead Soul [CD 2)
DYEAR=1900
DGENRE=blues
TTITLE0=Intro: Gregorian Chant
TTITLE1=Dead Souls (Live In London 02.08.79)
TTITLE2=Disorder (Live In London 02.08.79)
TTITLE3=Wilderness (Live In London 02.08.79)
TTITLE4=Autosuggestion (Live In London 02.08.79)
TTITLE5=Transmission (Live In London 02.08.79)
TTITLE6=Day Of The Lords (Live In London 02.08.79)
TTITLE7=She's Lost Control (Live In London 02.08.79)
TTITLE8=Shadowplay (Live In London 02.08.79)
TTITLE9=Atrocity Exhibition (Live In London 02.08.79)
TTITLE10=Insight (Live In London 02.08.79)
TTITLE11=Outro: Gregorian Chant
EXTD=
EXTT0=
EXTT1=
EXTT2=
EXTT3=
EXTT4=
EXTT5=
EXTT6=
EXTT7=
EXTT8=
EXTT9=
EXTT10=
EXTT11=
PLAYORDER=
